<?xml version="1.0" encoding="UTF-8" standalone="no"?>
<!-- Created with Inkscape (http://www.inkscape.org/) -->

<svg
   xmlns:dc="http://purl.org/dc/elements/1.1/"
   xmlns:cc="http://creativecommons.org/ns#"
   xmlns:rdf="http://www.w3.org/1999/02/22-rdf-syntax-ns#"
   xmlns:svg="http://www.w3.org/2000/svg"
   xmlns="http://www.w3.org/2000/svg"
   xmlns:sodipodi="http://sodipodi.sourceforge.net/DTD/sodipodi-0.dtd"
   xmlns:inkscape="http://www.inkscape.org/namespaces/inkscape"
   width="18.219545mm"
   height="24.294367mm"
   viewBox="0 0 64.557449 86.082401"
   id="svg2"
   version="1.1"
   inkscape:version="0.92.4 (5da689c313, 2019-01-14)"
   sodipodi:docname="golf.svg">
  <defs
     id="defs4" />
  <sodipodi:namedview
     id="base"
     pagecolor="#ffffff"
     bordercolor="#666666"
     borderopacity="1.0"
     inkscape:pageopacity="0.0"
     inkscape:pageshadow="2"
     inkscape:zoom="3.7333333"
     inkscape:cx="75.114782"
     inkscape:cy="37.586864"
     inkscape:document-units="px"
     inkscape:current-layer="layer1"
     showgrid="false"
     fit-margin-top="0"
     fit-margin-left="0"
     fit-margin-right="0"
     fit-margin-bottom="0"
     inkscape:window-width="1366"
     inkscape:window-height="705"
     inkscape:window-x="-8"
     inkscape:window-y="-8"
     inkscape:window-maximized="1"
     showguides="false"
     inkscape:guide-bbox="true">
    <sodipodi:guide
       position="0.41113956,92.806974"
       orientation="0,1"
       id="guide9141"
       inkscape:locked="false" />
    <sodipodi:guide
       position="0.41113956,92.806974"
       orientation="1,0"
       id="guide9143"
       inkscape:locked="false" />
    <sodipodi:guide
       position="4.578019,92.806974"
       orientation="1,0"
       id="guide9145"
       inkscape:locked="false" />
    <sodipodi:guide
       position="0.41113956,85.609634"
       orientation="0,1"
       id="guide9147"
       inkscape:locked="false" />
    <sodipodi:guide
       position="8.5554953,75.950044"
       orientation="1,0"
       id="guide9149"
       inkscape:locked="false" />
    <sodipodi:guide
       position="12.911779,69.510324"
       orientation="1,0"
       id="guide9151"
       inkscape:locked="false" />
    <sodipodi:guide
       position="17.078657,69.699734"
       orientation="1,0"
       id="guide9153"
       inkscape:locked="false" />
    <sodipodi:guide
       position="20.866729,66.479874"
       orientation="1,0"
       id="guide9155"
       inkscape:locked="false" />
    <sodipodi:guide
       position="-19.286836,78.601704"
       orientation="0,1"
       id="guide9157"
       inkscape:locked="false" />
    <sodipodi:guide
       position="-55.273524,71.214964"
       orientation="0,1"
       id="guide9159"
       inkscape:locked="false" />
    <sodipodi:guide
       position="24.654802,78.601704"
       orientation="1,0"
       id="guide9379"
       inkscape:locked="false" />
  </sodipodi:namedview>
  <metadata
     id="metadata7">
    <rdf:RDF>
      <cc:Work
         rdf:about="">
        <dc:format>image/svg+xml</dc:format>
        <dc:type
           rdf:resource="http://purl.org/dc/dcmitype/StillImage" />
        <dc:title></dc:title>
      </cc:Work>
    </rdf:RDF>
  </metadata>
  <g
     inkscape:label="Layer 1"
     inkscape:groupmode="layer"
     id="layer1"
     transform="translate(-129.86136,-31.660988)">
    <rect
       style="opacity:1;fill:#75ea6d;fill-opacity:1;stroke:none;stroke-width:0.22027534;stroke-linecap:round;stroke-linejoin:round;stroke-miterlimit:4;stroke-dasharray:none;stroke-dashoffset:0;stroke-opacity:1"
       id="rect4138"
       width="64.557449"
       height="86.082405"
       x="129.76469"
       y="31.76544" />
    <g
       transform="matrix(0.0513267,0,0,0.0513267,135.26797,40.311269)"
       id="g996-9-6"
       style="stroke-width:18.26533127">
      <g
         id="g994-5-3"
         style="stroke-width:18.26533127">
        <path
           inkscape:connector-curvature="0"
           d="m 253.851,124.664 c 0,-22.109 -18.178,-40.039 -40.631,-40.039 -22.424,0 -40.603,17.92 -40.603,40.039 0,22.232 18.178,40.22 40.603,40.22 22.414,-10e-4 40.631,-17.988 40.631,-40.22 z"
           id="path990-8-8"
           style="stroke-width:18.26533127" />
        <path
           inkscape:connector-curvature="0"
           d="m 419.321,163.87 c -1.588,-8.587 -8.635,-13.521 -9.056,-13.895 L 187.554,3.191 c -8.816,-5.805 -20.827,-3.471 -26.833,5.221 l -11.274,16.352 c -4.198,6.407 -2.362,14.736 3.959,18.886 6.359,4.208 13.33,1.042 17.423,-5.374 l 8.597,-21.181 199.608,131.972 -158.767,28.668 c -11.284,1.817 -19.393,13.101 -16.878,24.078 l 34.54,133.655 -111.7,167.593 c -6.742,11.437 -2.668,26.182 8.903,32.704 11.695,6.646 26.431,2.562 33.163,-8.865 0,0 116.567,-175.271 117.007,-176.466 l 6.072,24.489 -17.604,139.823 c -2.171,13.015 6.761,25.302 20.005,27.502 13.205,2.218 25.675,-6.627 27.922,-19.642 l 18.055,-143.505 c 0.573,-3.461 -0.144,-11.073 -0.976,-14.344 l -39.79,-158.422 103.667,-18.666 c 11.113,-1.959 18.58,-12.63 16.668,-23.799 z"
           id="path992-9-3"
           style="stroke-width:18.26533127" />
      </g>
    </g>
    <g
       transform="matrix(0.0513267,0,0,0.0513267,163.13248,38.273668)"
       id="g996-2-0"
       style="stroke-width:18.26533127">
      <g
         id="g994-1-5"
         style="stroke-width:18.26533127">
        <path
           inkscape:connector-curvature="0"
           d="m 253.851,124.664 c 0,-22.109 -18.178,-40.039 -40.631,-40.039 -22.424,0 -40.603,17.92 -40.603,40.039 0,22.232 18.178,40.22 40.603,40.22 22.414,-10e-4 40.631,-17.988 40.631,-40.22 z"
           id="path990-88-8"
           style="stroke-width:18.26533127" />
        <path
           inkscape:connector-curvature="0"
           d="m 419.321,163.87 c -1.588,-8.587 -8.635,-13.521 -9.056,-13.895 L 187.554,3.191 c -8.816,-5.805 -20.827,-3.471 -26.833,5.221 l -11.274,16.352 c -4.198,6.407 -2.362,14.736 3.959,18.886 6.359,4.208 13.33,1.042 17.423,-5.374 l 8.597,-21.181 199.608,131.972 -158.767,28.668 c -11.284,1.817 -19.393,13.101 -16.878,24.078 l 34.54,133.655 -111.7,167.593 c -6.742,11.437 -2.668,26.182 8.903,32.704 11.695,6.646 26.431,2.562 33.163,-8.865 0,0 116.567,-175.271 117.007,-176.466 l 6.072,24.489 -17.604,139.823 c -2.171,13.015 6.761,25.302 20.005,27.502 13.205,2.218 25.675,-6.627 27.922,-19.642 l 18.055,-143.505 c 0.573,-3.461 -0.144,-11.073 -0.976,-14.344 l -39.79,-158.422 103.667,-18.666 c 11.113,-1.959 18.58,-12.63 16.668,-23.799 z"
           id="path992-0-9"
           style="stroke-width:18.26533127" />
      </g>
    </g>
    <g
       transform="matrix(0.0513267,0,0,0.0513267,133.62992,80.35272)"
       id="g996-9-9"
       style="stroke-width:18.26533127">
      <g
         id="g994-5-5"
         style="stroke-width:18.26533127">
        <path
           inkscape:connector-curvature="0"
           d="m 253.851,124.664 c 0,-22.109 -18.178,-40.039 -40.631,-40.039 -22.424,0 -40.603,17.92 -40.603,40.039 0,22.232 18.178,40.22 40.603,40.22 22.414,-10e-4 40.631,-17.988 40.631,-40.22 z"
           id="path990-8-4"
           style="stroke-width:18.26533127" />
        <path
           inkscape:connector-curvature="0"
           d="m 419.321,163.87 c -1.588,-8.587 -8.635,-13.521 -9.056,-13.895 L 187.554,3.191 c -8.816,-5.805 -20.827,-3.471 -26.833,5.221 l -11.274,16.352 c -4.198,6.407 -2.362,14.736 3.959,18.886 6.359,4.208 13.33,1.042 17.423,-5.374 l 8.597,-21.181 199.608,131.972 -158.767,28.668 c -11.284,1.817 -19.393,13.101 -16.878,24.078 l 34.54,133.655 -111.7,167.593 c -6.742,11.437 -2.668,26.182 8.903,32.704 11.695,6.646 26.431,2.562 33.163,-8.865 0,0 116.567,-175.271 117.007,-176.466 l 6.072,24.489 -17.604,139.823 c -2.171,13.015 6.761,25.302 20.005,27.502 13.205,2.218 25.675,-6.627 27.922,-19.642 l 18.055,-143.505 c 0.573,-3.461 -0.144,-11.073 -0.976,-14.344 l -39.79,-158.422 103.667,-18.666 c 11.113,-1.959 18.58,-12.63 16.668,-23.799 z"
           id="path992-9-9"
           style="stroke-width:18.26533127" />
      </g>
    </g>
    <g
       transform="matrix(0.0513267,0,0,0.0513267,161.49444,78.315125)"
       id="g996-2-4"
       style="stroke-width:18.26533127">
      <g
         id="g994-1-3"
         style="stroke-width:18.26533127">
        <path
           inkscape:connector-curvature="0"
           d="m 253.851,124.664 c 0,-22.109 -18.178,-40.039 -40.631,-40.039 -22.424,0 -40.603,17.92 -40.603,40.039 0,22.232 18.178,40.22 40.603,40.22 22.414,-10e-4 40.631,-17.988 40.631,-40.22 z"
           id="path990-88-2"
           style="stroke-width:18.26533127" />
        <path
           inkscape:connector-curvature="0"
           d="m 419.321,163.87 c -1.588,-8.587 -8.635,-13.521 -9.056,-13.895 L 187.554,3.191 c -8.816,-5.805 -20.827,-3.471 -26.833,5.221 l -11.274,16.352 c -4.198,6.407 -2.362,14.736 3.959,18.886 6.359,4.208 13.33,1.042 17.423,-5.374 l 8.597,-21.181 199.608,131.972 -158.767,28.668 c -11.284,1.817 -19.393,13.101 -16.878,24.078 l 34.54,133.655 -111.7,167.593 c -6.742,11.437 -2.668,26.182 8.903,32.704 11.695,6.646 26.431,2.562 33.163,-8.865 0,0 116.567,-175.271 117.007,-176.466 l 6.072,24.489 -17.604,139.823 c -2.171,13.015 6.761,25.302 20.005,27.502 13.205,2.218 25.675,-6.627 27.922,-19.642 l 18.055,-143.505 c 0.573,-3.461 -0.144,-11.073 -0.976,-14.344 l -39.79,-158.422 103.667,-18.666 c 11.113,-1.959 18.58,-12.63 16.668,-23.799 z"
           id="path992-0-2"
           style="stroke-width:18.26533127" />
      </g>
    </g>
  </g>
</svg>
