<?xml version="1.0" encoding="UTF-8" standalone="no"?>
<!-- Created with Inkscape (http://www.inkscape.org/) -->

<svg
   xmlns:dc="http://purl.org/dc/elements/1.1/"
   xmlns:cc="http://creativecommons.org/ns#"
   xmlns:rdf="http://www.w3.org/1999/02/22-rdf-syntax-ns#"
   xmlns:svg="http://www.w3.org/2000/svg"
   xmlns="http://www.w3.org/2000/svg"
   xmlns:sodipodi="http://sodipodi.sourceforge.net/DTD/sodipodi-0.dtd"
   xmlns:inkscape="http://www.inkscape.org/namespaces/inkscape"
   width="80.433334mm"
   height="44.18412mm"
   viewBox="0 0 80.433334 44.18412"
   version="1.1"
   id="svg8"
   inkscape:version="0.92.4 (5da689c313, 2019-01-14)"
   sodipodi:docname="plac_sportowy.svg">
  <defs
     id="defs2" />
  <sodipodi:namedview
     id="base"
     pagecolor="#ffffff"
     bordercolor="#666666"
     borderopacity="1.0"
     inkscape:pageopacity="0.0"
     inkscape:pageshadow="2"
     inkscape:zoom="1.4"
     inkscape:cx="174.0252"
     inkscape:cy="90.498698"
     inkscape:document-units="mm"
     inkscape:current-layer="layer1"
     showgrid="false"
     fit-margin-top="0"
     fit-margin-left="0"
     fit-margin-right="0"
     fit-margin-bottom="0"
     inkscape:window-width="1920"
     inkscape:window-height="1001"
     inkscape:window-x="-9"
     inkscape:window-y="-9"
     inkscape:window-maximized="1" />
  <metadata
     id="metadata5">
    <rdf:RDF>
      <cc:Work
         rdf:about="">
        <dc:format>image/svg+xml</dc:format>
        <dc:type
           rdf:resource="http://purl.org/dc/dcmitype/StillImage" />
        <dc:title></dc:title>
      </cc:Work>
    </rdf:RDF>
  </metadata>
  <g
     inkscape:label="Layer 1"
     inkscape:groupmode="layer"
     id="layer1"
     transform="translate(32.139951,-256.31613)">
    <path
       style="fill:#2a2422;stroke-width:0.26458332"
       d="m 6.8860894,300.44941 -19.5791664,-0.0499 -1.653645,-0.0939 -1.653646,-0.0939 v -0.38425 -0.38425 h -1.455209 -1.455208 v -0.52917 -0.52916 h -0.926041 -0.926042 v -0.52917 -0.52917 h -0.926042 -0.926041 v -0.39687 -0.39688 h -0.529167 -0.529167 v -0.52916 -0.52917 h -0.529166 -0.529167 v -0.52917 -0.52916 h -0.396875 -0.396875 v -0.39688 -0.39687 h -0.529167 -0.529166 v -0.52917 -0.52917 h -0.396875 -0.396875 v -0.39687 -0.39688 h -0.529167 -0.529167 v -0.52916 -0.52917 h -0.396874 -0.396875 v -0.92604 -0.92604 h -0.529167 -0.529167 v -1.45521 -1.45521 h -0.529166 -0.529167 v -1.45521 -1.45521 h -0.396875 -0.396875 v -4.7625 -4.7625 h 0.396875 0.396875 v -1.4552 -1.45521 h 0.529167 0.529166 v -0.92604 -0.92605 h 0.529167 0.529167 v -0.92604 -0.92604 h 0.396875 0.396874 v -0.92604 -0.92604 h 0.529167 0.529167 v -0.52917 -0.52917 h 0.396875 0.396875 v -0.52916 -0.52917 h 0.529166 0.529167 v -0.39687 -0.39688 h 0.396875 0.396875 v -0.52917 -0.52916 h 0.529167 0.529166 v -0.52917 -0.52917 h 0.926042 0.926042 v -0.39687 -0.39688 h 0.529166 0.529167 v -0.52916 -0.52917 h 1.455208 1.455209 v -0.39687 -0.39688 h 1.322916 1.322917 v -0.52917 -0.52916 H 8.0767143 31.360047 v 0.52916 0.52917 h 1.455208 1.455209 v 0.39688 0.39687 h 0.926041 0.926042 v 0.52917 0.52916 h 0.926041 0.926042 v 0.39688 0.39687 h 0.926042 0.926041 v 0.52917 0.52917 h 0.529167 0.529167 v 0.52916 0.52917 h 0.396875 0.396875 v 0.39688 0.39687 h 0.529166 0.529167 v 0.52917 0.52916 h 0.529167 0.529166 v 0.52917 0.52917 h 0.396875 0.396875 v 0.92604 0.92604 h 0.529167 0.529166 v 0.39688 0.39687 h 0.396875 0.396875 v 1.05833 1.05834 h 0.529167 0.529167 v 1.85208 1.85208 h 0.396875 0.396875 v 5.29167 5.29167 H 47.896505 47.49963 v 1.45521 1.4552 h -0.529167 -0.529167 v 0.92605 0.92604 h -0.396875 -0.396875 v 0.92604 0.92604 h -0.405177 -0.40518 l -0.169921,0.44281 -0.169923,0.44281 -0.437298,0.4373 -0.437298,0.4373 -0.44281,0.16992 -0.442809,0.16992 v 0.40518 0.40518 l -0.330729,0.005 -0.330729,0.005 -0.595313,0.62804 -0.595312,0.62803 v 0.29344 0.29343 h -0.405178 -0.40518 l -0.169921,0.44281 -0.169923,0.44281 -0.483233,0.48323 -0.483232,0.48322 h -0.81852 -0.81852 l -0.13838,0.52917 -0.13838,0.52917 h -0.787662 -0.787662 l -0.138379,0.52916 -0.13838,0.52917 H 34.107314 33.21213 v 0.35605 0.35604 l -3.373437,0.17205 -3.373438,0.17205 z M 8.0767143,298.3848 H 30.301714 v -0.3638 -0.36381 l 0.826823,-0.16536 0.826822,-0.16537 h 0.600078 0.600078 l 0.152296,-0.39687 0.152295,-0.39688 h 0.802055 0.802053 v -0.52916 -0.52917 h 0.895183 0.895183 l 0.13838,-0.52917 0.13838,-0.52916 h 0.421645 0.421645 v -0.39688 -0.39687 h 0.529167 0.529166 v -0.29344 -0.29344 l 0.595313,-0.62803 0.595312,-0.62803 0.330729,-0.005 0.33073,-0.005 v -0.52916 -0.52917 h 0.396875 0.396875 v -0.52917 -0.52916 h 0.529166 0.529167 v -0.81852 -0.81852 l 0.529167,-0.13838 0.529166,-0.13838 v -0.7712 -0.77119 l 0.396875,-0.1523 0.396875,-0.1523 v -1.4269 -1.4269 h 0.529167 0.529166 v -4.23333 -4.23333 H 45.11838 44.589213 v -1.98438 -1.98437 h -0.396875 -0.396875 v -0.92604 -0.92605 H 43.266297 42.73713 v -0.52916 -0.52917 h -0.529167 -0.529166 v -0.92604 -0.92604 h -0.396875 -0.396875 v -0.39688 -0.39687 H 40.35588 39.826713 v -0.52917 -0.52917 h -0.396875 -0.396875 v -0.52916 -0.52917 H 38.503797 37.97463 v -0.39687 -0.39688 h -0.926042 -0.926041 v -0.52917 -0.52916 h -0.926042 -0.926041 v -0.52917 -0.52917 H 33.344422 32.41838 v -0.39687 -0.39688 H 30.434005 28.44963 v -0.52916 -0.52917 H 8.0767143 -12.296202 v 0.52917 0.52916 h -2.38125 -2.38125 v 0.39688 0.39687 h -0.396875 -0.396874 v 0.52917 0.52917 h -1.455209 -1.455208 v 0.52916 0.52917 h -0.529167 -0.529166 v 0.39688 0.39687 h -0.396875 -0.396875 v 0.52917 0.52916 h -0.529167 -0.529167 v 0.52917 0.52917 h -0.529166 -0.529167 v 0.39687 0.39688 h -0.396875 -0.396875 v 0.92604 0.92604 h -0.529167 -0.529166 v 1.05833 1.05834 h -0.396875 -0.396875 v 0.92604 0.92604 h -0.529167 -0.529167 v 1.45521 1.45521 h -0.396874 -0.396875 v 3.83646 3.83645 h 0.396875 0.396874 v 1.32292 1.32292 h 0.529167 0.529167 v 1.45521 1.4552 h 0.396875 0.396875 v 0.92605 0.92604 h 0.529166 0.529167 v 0.52916 0.52917 h 0.396875 0.396875 v 0.52917 0.52916 h 0.529167 0.529166 v 0.39688 0.39687 h 0.529167 0.529167 v 0.52917 0.52917 h 0.396875 0.396875 v 0.39687 0.39688 h 0.529166 0.529167 v 0.52916 0.52917 h 0.926042 0.926041 v 0.52917 0.52916 h 0.926042 0.926041 v 0.39688 0.39687 h 1.455209 1.455208 v 0.52917 0.52917 z"
       id="path1015"
       inkscape:connector-curvature="0" />
  </g>
</svg>
